<svg xmlns="http://www.w3.org/2000/svg" viewBox="0 0 512 512" shape-rendering="crispEdges">
  <!-- qrec logo — pixel magnifying glass, 16×16 grid (32px/cell) -->
  <!-- dark navy rounded-square container -->
  <rect width="512" height="512" rx="112" ry="112" fill="#FFFFFF"/>

  <!-- circle ring — 2-cell wide stroke -->
  <!-- top arc: row 1, cols 5–10 -->
  <rect x="160" y="32"  width="192" height="32" fill="#0062a8"/>
  <!-- row 2 -->
  <rect x="128" y="64"  width="64"  height="32" fill="#0062a8"/>
  <rect x="320" y="64"  width="64"  height="32" fill="#0062a8"/>
  <!-- row 3 -->
  <rect x="96"  y="96"  width="64"  height="32" fill="#0062a8"/>
  <rect x="352" y="96"  width="64"  height="32" fill="#0062a8"/>
  <!-- row 4 -->
  <rect x="64"  y="128" width="64"  height="32" fill="#0062a8"/>
  <rect x="384" y="128" width="64"  height="32" fill="#0062a8"/>
  <!-- row 5 -->
  <rect x="64"  y="160" width="64"  height="32" fill="#0062a8"/>
  <rect x="384" y="160" width="64"  height="32" fill="#0062a8"/>
  <!-- row 6 -->
  <rect x="64"  y="192" width="64"  height="32" fill="#0062a8"/>
  <rect x="384" y="192" width="64"  height="32" fill="#0062a8"/>
  <!-- row 7 -->
  <rect x="64"  y="224" width="64"  height="32" fill="#0062a8"/>
  <rect x="384" y="224" width="64"  height="32" fill="#0062a8"/>
  <!-- row 8 -->
  <rect x="96"  y="256" width="64"  height="32" fill="#0062a8"/>
  <rect x="352" y="256" width="64"  height="32" fill="#0062a8"/>
  <!-- row 9 -->
  <rect x="128" y="288" width="64"  height="32" fill="#0062a8"/>
  <rect x="320" y="288" width="64"  height="32" fill="#0062a8"/>
  <!-- bottom arc: row 10, cols 5–10 -->
  <rect x="160" y="320" width="192" height="32" fill="#0062a8"/>

  <!-- center lens dot — 2×2 pixels at cols 7–8, rows 5–6 -->
  <rect x="224" y="160" width="64"  height="64"  fill="#0062a8"/>

  <!-- handle — drops straight down then angles 45° -->
  <!-- row 11: straight down -->
  <rect x="320" y="352" width="64"  height="32" fill="#0062a8"/>
  <!-- row 12: straight down -->
  <rect x="320" y="384" width="64"  height="32" fill="#0062a8"/>
  <!-- row 13: diagonal -->
  <rect x="352" y="416" width="64"  height="32" fill="#0062a8"/>
  <!-- row 14: diagonal -->
  <rect x="384" y="448" width="64"  height="32" fill="#0062a8"/>
</svg>
